<svg xmlns="http://www.w3.org/2000/svg" version="1.1" xmlns:xlink="http://www.w3.org/1999/xlink" xmlns:svgjs="http://svgjs.dev/svgjs" width="1500" height="1500" viewBox="0 0 1500 1500"><rect width="1500" height="1500" fill="#ffffff"></rect><g transform="matrix(0.6666666666666666,0,0,0.6666666666666666,249.39393939393938,668.8009910418209)"><svg viewBox="0 0 396 64" data-background-color="#ffffff" preserveAspectRatio="xMidYMid meet" height="242" width="1500" xmlns="http://www.w3.org/2000/svg" xmlns:xlink="http://www.w3.org/1999/xlink"><g id="tight-bounds" transform="matrix(1,0,0,1,0.2400000000000091,0.21117710737686934)"><svg viewBox="0 0 395.52 63.57764578524625" height="63.57764578524625" width="395.52"><g><svg viewBox="0 0 506.47109004641715 81.41241799008563" height="63.57764578524625" width="395.52"><g transform="matrix(1,0,0,1,110.9510900464171,1.4334555024786013)"><svg viewBox="0 0 395.52000000000004 78.54550698512843" height="78.54550698512843" width="395.52000000000004"><g id="textblocktransform"><svg viewBox="0 0 395.52000000000004 78.54550698512843" height="78.54550698512843" width="395.52000000000004" id="textblock"><g><svg viewBox="0 0 395.52000000000004 78.54550698512843" height="78.54550698512843" width="395.52000000000004"><g transform="matrix(1,0,0,1,0,0)"><svg width="395.52000000000004" viewBox="3.45 -32.5 166.41000000000003 33.05" height="78.54550698512843" data-palette-color="#000000"><path d="M7.05-14.3L6.53 0 3.45 0 4.8-31.95 9.83-31.95 18.23-7.43 18.6-7.43 27-31.95 32.05-31.95 33.38 0 30.33 0 29.8-14.33 29.28-28.78 28.8-28.78 20.18-3.68 16.65-3.68 8.05-28.78 7.58-28.78 7.05-14.3ZM51.35 0.55L51.35 0.55Q45.52 0.55 42.49-2.73 39.45-6 39.45-12.08L39.45-12.08 39.45-19.9Q39.45-25.95 42.49-29.23 45.52-32.5 51.35-32.5L51.35-32.5Q57.15-32.5 60.2-29.23 63.25-25.95 63.25-19.9L63.25-19.9 63.25-12.08Q63.25-6 60.2-2.73 57.15 0.55 51.35 0.55ZM51.35-2.08L51.35-2.08Q55.67-2.08 57.89-4.66 60.1-7.25 60.1-11.98L60.1-11.98 60.1-20Q60.1-24.75 57.89-27.31 55.67-29.88 51.35-29.88L51.35-29.88Q47.02-29.88 44.81-27.31 42.6-24.75 42.6-20L42.6-20 42.6-11.98Q42.6-7.25 44.81-4.66 47.02-2.08 51.35-2.08ZM80.22 0L80.22 0 72.15 0 72.15-2.65 80.12-2.65Q84.7-2.65 87.02-5.15 89.35-7.65 89.35-12.33L89.35-12.33 89.35-19.65Q89.35-24.35 87.02-26.84 84.7-29.33 80.12-29.33L80.12-29.33 72.12-29.33 72.12-31.95 80.22-31.95Q86.25-31.95 89.37-28.78 92.5-25.6 92.5-19.68L92.5-19.68 92.5-12.3Q92.5-6.38 89.37-3.19 86.25 0 80.22 0ZM73.17-31.95L73.17 0 70.1 0 70.1-31.95 73.17-31.95ZM102.24-14.3L101.72 0 98.64 0 99.99-31.95 105.02-31.95 113.42-7.43 113.79-7.43 122.19-31.95 127.24-31.95 128.57 0 125.52 0 124.99-14.33 124.47-28.78 123.99-28.78 115.37-3.68 111.84-3.68 103.24-28.78 102.77-28.78 102.24-14.3ZM136.12-31.95L139.24-31.95 139.24 0 136.12 0 136.12-31.95ZM147.39 0L147.39-31.95 152.24-31.95 166.64-3.28 166.96-3.28 166.84-17.38 166.84-31.95 169.86-31.95 169.86 0 165.11 0 150.64-28.85 150.31-28.85 150.44-13.95 150.44 0 147.39 0Z" opacity="1" transform="matrix(1,0,0,1,0,0)" fill="#000000" class="wordmark-text-0" data-fill-palette-color="primary" id="text-0"></path></svg></g></svg></g></svg></g></svg></g><g><svg viewBox="0 0 92.40838093939591 81.41241799008563" height="81.41241799008563" width="92.40838093939591"><g><svg xmlns="http://www.w3.org/2000/svg" xmlns:xlink="http://www.w3.org/1999/xlink" version="1.1" x="0" y="0" viewBox="6.3 11.5 87.4 77" style="enable-background:new 0 0 100 100;" xml:space="preserve" height="81.41241799008563" width="92.40838093939591" class="icon-icon-0" data-fill-palette-color="accent" id="icon-0"><path d="M72.3 12.3L71.9 11.5H28.2L6.3 50 28.1 88.5H71.8L93.7 50zM33.3 25.3L9.9 47.7 28.5 14.9zM70.7 14.8L77.1 50.5 36.9 25.8zM35.5 27.3L76.5 52.5 35.5 75.8zM77 54.5L69.8 85.3 37.2 77.2zM33.5 75L9.9 50.5 33.5 27.8zM33.2 77.6L28.6 85.3 11.5 55.1zM35 78.6L66.4 86.5H30.2zM79.3 53.3L90.9 50.8 72.1 84zM90.7 48.9L79.3 51.4 73.4 18.3zM35 24.3L30 13.5H68.2z" fill="#000000" data-fill-palette-color="accent"></path></svg></g></svg></g></svg></g><defs></defs></svg><rect width="395.52" height="63.57764578524625" fill="none" stroke="none" visibility="hidden"></rect></g></svg></g></svg>